<?xml version="1.0" standalone="no"?>
<!DOCTYPE svg PUBLIC "-//W3C//DTD SVG 20010904//EN"
 "http://www.w3.org/TR/2001/REC-SVG-20010904/DTD/svg10.dtd">
<svg version="1.0" xmlns="http://www.w3.org/2000/svg"
 width="64.000000pt" height="64.000000pt" viewBox="0 0 64.000000 64.000000"
 preserveAspectRatio="xMidYMid meet">
<metadata>
Created by potrace 1.15, written by Peter Selinger 2001-2017
</metadata>
<g transform="translate(0.000000,64.000000) scale(0.100000,-0.100000)"
fill="#000000" stroke="none">
<path d="M397 592 c-28 -29 -35 -52 -16 -52 7 0 9 -8 4 -22 -4 -13 -8 -36 -10
-52 -2 -16 -7 -31 -12 -35 -13 -9 -35 -63 -28 -69 3 -3 19 2 35 12 25 14 30
15 30 2 0 -20 -39 -49 -164 -125 -58 -36 -106 -70 -106 -78 0 -15 -16 -17 -25
-3 -13 21 -24 -1 -13 -25 9 -20 14 -22 30 -14 10 5 22 7 27 5 5 -3 11 1 14 9
7 16 86 69 94 62 2 -3 -5 -23 -16 -46 -12 -22 -21 -49 -21 -61 0 -12 -7 -20
-17 -20 -14 0 -15 -2 -4 -9 7 -5 10 -14 6 -21 -5 -8 1 -11 20 -8 23 3 31 14
64 96 41 101 65 129 159 176 28 14 52 30 52 35 0 6 9 13 21 16 29 10 89 64 89
82 0 12 -7 14 -31 9 -17 -3 -36 -6 -41 -6 -5 0 -7 -9 -3 -19 4 -15 -1 -24 -23
-35 -16 -8 -32 -12 -35 -9 -4 3 -13 1 -20 -6 -11 -9 -17 -8 -27 4 -7 8 -19 15
-27 15 -11 0 -13 5 -8 18 18 42 44 202 33 202 -2 0 -16 -13 -31 -28z"/>
</g>
</svg>
